<svg xmlns="http://www.w3.org/2000/svg" version="1.1" xmlns:xlink="http://www.w3.org/1999/xlink" width="512" height="512" x="0" y="0" viewBox="0 0 64 64" style="enable-background:new 0 0 512 512" xml:space="preserve" class=""><g><g data-name="Layer 22"><path fill="#f4b2b0" d="M38 19a15 15 0 1 0 15 15 15 15 0 0 0-15-15zm-.014 24a9 9 0 0 1 0-18v-2l5 4-5 4v-2a5 5 0 1 0 5 5h4a9 9 0 0 1-9 9z" opacity="1" data-original="#f4b2b0" class=""></path><g fill="#b3404a"><path d="M1.985 55h23v7a1 1 0 0 0 1 1h36a1 1 0 0 0 1-1V22a1 1 0 0 0-.293-.707l-10-10a1 1 0 0 0-.707-.293H38.4l-9.708-9.707A1 1 0 0 0 27.985 1h-26a1 1 0 0 0-1 1v52a1 1 0 0 0 1 1zm25 6v-6h11a1 1 0 0 0 1-1v-4.051a15.979 15.979 0 0 0 0-31.9V13h12v9a1 1 0 0 0 1 1h9v38zm2-56.586L35.571 11h-6.586zm9 15.586a14 14 0 1 1-14 14 14.015 14.015 0 0 1 14-14zm15-5.586L59.571 21h-6.586zM2.985 3h24v9a1 1 0 0 0 1 1h9v5.051A16 16 0 0 0 23.62 27H8.985v2H22.8a15.9 15.9 0 0 0-.52 2H4.985v2h17.051c-.021.332-.051.662-.051 1a15.913 15.913 0 0 0 .812 5H8.985v2H23.62a15.98 15.98 0 0 0 1.147 2H4.985v2H26.4a15.934 15.934 0 0 0 10.588 4.949V53h-34z" fill="#b3404a" opacity="1" data-original="#b3404a" class=""></path><path d="M8.985 7h10v2h-10zM20.985 7h4v2h-4zM4.985 11h20v2h-20zM4.985 15h26v2h-26zM4.985 19h22v2h-22zM37.985 44a10.011 10.011 0 0 0 10-10 1 1 0 0 0-1-1h-4a1 1 0 0 0-1 1 4 4 0 1 1-5-3.873V31a1 1 0 0 0 1.625.781l5-4a1 1 0 0 0 0-1.562l-5-4a1 1 0 0 0-1.625.781v1.05a10 10 0 0 0 1 19.95zm0-18a1 1 0 0 0 1-.922l2.4 1.922-2.4 1.922a1 1 0 0 0-1-.922 6 6 0 1 0 5.915 7h2.021a8 8 0 1 1-7.938-9z" fill="#b3404a" opacity="1" data-original="#b3404a" class=""></path></g></g></g></svg>