<svg xmlns="http://www.w3.org/2000/svg" version="1.1" xmlns:xlink="http://www.w3.org/1999/xlink" width="512" height="512" x="0" y="0" viewBox="0 0 511.804 511.804" style="enable-background:new 0 0 512 512" xml:space="preserve" class=""><g><circle cx="255.902" cy="255.904" r="248.396" style="" fill="#71d8fd" data-original="#71d8fd" class=""></circle><path d="M382.041 334.385H129.762c-9.395 0-17.012-7.616-17.012-17.012V194.435c0-9.395 7.616-17.012 17.012-17.012h252.279c9.395 0 17.012 7.616 17.012 17.012v122.939c0 9.395-7.616 17.011-17.012 17.011z" style="" fill="#ffcd74" data-original="#ffcd74" class=""></path><path d="M255.902 7.508c-1.734 0-3.461.03-5.186.066C357.35 39.029 435.183 137.661 435.183 254.487c0 120.084-82.228 220.96-193.449 249.401 4.691.264 9.412.411 14.168.411 137.185 0 248.396-111.211 248.396-248.396S393.087 7.508 255.902 7.508z" style="" fill="#60c3f7" data-original="#60c3f7"></path><path d="M437.251 75.357C389.207 27.1 325.267.344 257.195.014h-.024c-.866-.02-1.81-.018-2.56 0h-.002C186.537.344 122.597 27.1 74.552 75.357 26.477 123.644.001 187.763.001 255.904c0 33.607 6.417 66.281 19.072 97.112a7.5 7.5 0 0 0 13.877-5.697 239.046 239.046 0 0 1-11.868-37.397c22.251 27.135 61.156 49.988 112.078 64.521 14.717 52.573 38.368 92.803 66.652 115.758-23.15-5.524-45.424-14.46-66.01-26.587-35.462-20.891-65.192-50.71-85.977-86.233a7.5 7.5 0 0 0-12.948 7.575c22.074 37.727 53.648 69.396 91.311 91.583 38.778 22.844 83.182 35.035 128.419 35.255.425.01.858.01 1.293.01.447 0 .89-.001 1.273-.01h.02c68.072-.33 132.012-27.086 180.057-75.343 48.075-48.287 74.551-112.406 74.551-180.546s-26.474-132.261-74.55-180.548zm-50.938 94.947a410.793 410.793 0 0 0-3.365-15.984c32.645 10.217 60.15 24.223 80.058 40.867 19.502 16.305 30.888 34.563 33.304 53.217h-89.759v-53.97c.001-12.058-8.753-22.102-20.238-24.13zm-122.911-34.181c35.868.565 71.212 5.189 102.957 13.452a385.2 385.2 0 0 1 4.621 20.349H263.402v-33.801zm0-15V15.463c19.885 2.422 39.3 14.454 56.515 35.123 17.181 20.629 31.501 48.933 41.785 82.372-30.722-7.26-64.31-11.314-98.3-11.835zm-15-105.655v105.654c-18.152.273-36.163 1.535-53.644 3.765a7.5 7.5 0 0 0-6.49 8.389c.523 4.109 4.287 7.017 8.389 6.491 16.856-2.15 34.228-3.373 51.745-3.644v33.802H140.824a384.542 384.542 0 0 1 4.624-20.358 384.726 384.726 0 0 1 17.566-4.14 7.5 7.5 0 0 0 5.791-8.886c-.855-4.053-4.835-6.649-8.887-5.791a404.686 404.686 0 0 0-9.815 2.206c10.282-33.437 24.603-61.74 41.783-82.369 17.203-20.655 36.603-32.683 56.516-35.119zM125.49 170.304c-11.485 2.028-20.239 12.072-20.239 24.129v53.97H15.493c2.416-18.654 13.803-36.913 33.304-53.217 19.907-16.644 47.413-30.65 80.058-40.867a413.5 413.5 0 0 0-3.365 15.985zm-5.239 24.13c0-5.244 4.267-9.51 9.511-9.51h250.209l.033.001.034-.001h2.004c5.244 0 9.511 4.266 9.511 9.51v122.94c0 5.244-4.267 9.51-9.511 9.51H129.763c-5.244 0-9.511-4.266-9.511-9.51v-122.94zm25.194 167.799a385.2 385.2 0 0 1-4.621-20.349h107.578v33.801c-35.868-.566-71.213-5.19-102.957-13.452zm117.957-20.349H370.98a385.2 385.2 0 0 1-4.621 20.349c-31.744 8.262-67.088 12.886-102.957 13.452v-33.801zm122.911-.38c11.485-2.028 20.239-12.072 20.239-24.129v-53.97h89.759c-2.416 18.654-13.803 36.913-33.304 53.217-19.907 16.644-47.413 30.65-80.058 40.867a411.63 411.63 0 0 0 3.364-15.985zm104.44-139.578c-22.246-27.153-61.164-50.022-112.111-64.561-14.733-52.631-38.42-92.891-66.746-115.834 43.125 10.218 82.683 32.227 114.724 64.41 32.282 32.422 54.208 72.431 64.133 115.985zM85.182 85.94c32.046-32.188 71.612-54.199 114.745-64.415-28.343 22.942-52.033 63.205-66.766 115.839-50.948 14.54-89.865 37.409-112.111 64.561 9.925-43.553 31.851-83.562 64.132-115.985zM15.493 263.404h89.759v53.97c0 12.057 8.754 22.102 20.239 24.129a410.793 410.793 0 0 0 3.365 15.984c-32.645-10.217-60.15-24.223-80.058-40.867-19.502-16.304-30.889-34.562-33.305-53.216zm134.61 115.445c30.721 7.261 64.309 11.315 98.299 11.835v105.66c-19.885-2.422-39.3-14.454-56.515-35.123-17.181-20.628-31.501-48.932-41.784-82.372zm276.519 47.018c-32.063 32.205-71.654 54.223-114.813 64.431 13.066-10.558 25.227-24.845 35.993-42.528a7.501 7.501 0 0 0-12.813-7.801c-20.332 33.394-45.518 53.145-71.587 56.357V390.684c33.992-.52 67.581-4.575 98.304-11.836-2.747 8.925-5.79 17.54-9.106 25.715a7.5 7.5 0 0 0 6.947 10.321 7.503 7.503 0 0 0 6.953-4.683c4.562-11.246 8.634-23.259 12.136-35.757 50.951-14.539 89.871-37.41 112.118-64.563-9.926 43.555-31.852 83.563-64.132 115.986z" fill="#000000" opacity="1" data-original="#000000" class=""></path><path d="M146.924 304.636c1.571 1.179 3.601 1.777 6.031 1.777h24.741c10.047 0 18.199-2.627 24.229-7.809 6.052-5.201 9.12-13.511 9.12-24.701v-38.161c0-11.188-3.068-19.499-9.12-24.701-6.032-5.181-14.184-7.809-24.229-7.809h-24.741c-2.431 0-4.46.598-6.031 1.777-1.617 1.212-2.437 2.664-2.437 4.314v90.998c.001 1.651.82 3.103 2.437 4.315zm44.95-30.733c0 10.48-4.638 15.575-14.177 15.575H163.66v-69.31h14.037c9.539 0 14.177 5.095 14.177 15.575v38.16zM228.464 304.808c1.835 1.065 4.083 1.605 6.681 1.605 2.501 0 4.724-.539 6.606-1.602 1.977-1.115 2.979-2.672 2.979-4.629v-54.197l29.112 54.434c2.132 3.978 5.808 5.995 10.924 5.995 2.501 0 4.724-.539 6.605-1.602 1.978-1.115 2.98-2.672 2.98-4.629v-90.858c0-2.054-.983-3.613-2.923-4.636-1.838-.965-4.08-1.455-6.663-1.455-2.585 0-4.826.49-6.663 1.456-1.938 1.021-2.922 2.581-2.922 4.636v54.138l-26.038-50.32c-2.203-4.116-4.175-6.734-6.028-8.005-1.85-1.263-4.531-1.904-7.971-1.904-2.592 0-4.837.515-6.672 1.53-1.934 1.068-2.914 2.65-2.914 4.701v90.718c.002 1.953.98 3.509 2.907 4.624zM348.224 287.749c-2.883 1.982-6.55 2.987-10.899 2.987-3.18 0-6.123-.573-8.749-1.702-2.636-1.133-4.678-2.394-6.069-3.748a48.937 48.937 0 0 0-4.519-3.889c-1.619-1.224-3.108-1.844-4.426-1.844-2.207 0-4.2 1.173-5.923 3.486-1.688 2.267-2.545 4.555-2.545 6.799 0 4.46 3.283 8.603 9.757 12.315 6.383 3.661 14.133 5.518 23.033 5.518 10.048 0 18.27-2.66 24.437-7.907 6.191-5.268 9.331-12.84 9.331-22.506 0-5.738-1.148-10.825-3.412-15.12-2.264-4.292-5.117-7.621-8.479-9.896-3.305-2.234-6.945-4.338-10.821-6.254-3.877-1.913-7.514-3.519-10.808-4.771-3.238-1.231-5.983-2.846-8.16-4.798-2.146-1.921-3.189-4.108-3.189-6.686 0-3.21 1.278-5.659 3.909-7.487 2.651-1.842 6.482-2.776 11.387-2.776 4.466 0 8.579.877 12.226 2.607 5.1 2.424 6.474 2.704 7.064 2.704 2.414 0 4.346-1.201 5.742-3.571 1.345-2.286 2.026-4.538 2.026-6.692 0-2.343-1.023-4.403-3.042-6.123-1.962-1.668-4.522-2.911-7.61-3.692-3.034-.766-5.946-1.325-8.657-1.663-2.716-.336-5.323-.506-7.749-.506-4.305 0-8.438.506-12.287 1.505a38.37 38.37 0 0 0-10.905 4.744c-3.415 2.166-6.179 5.237-8.213 9.128-2.031 3.882-3.062 8.423-3.062 13.498 0 4.528.839 8.62 2.493 12.163 1.653 3.548 3.865 6.43 6.573 8.568 2.665 2.105 5.654 4.027 8.884 5.712a136.802 136.802 0 0 0 9.61 4.56c3.146 1.343 6.072 2.748 8.693 4.173 2.579 1.404 4.688 3.19 6.269 5.311 1.558 2.094 2.347 4.51 2.347 7.18-.001 3.868-1.393 6.705-4.257 8.673z" fill="#000000" opacity="1" data-original="#000000" class=""></path></g></svg>