<svg xmlns="http://www.w3.org/2000/svg" version="1.1" xmlns:xlink="http://www.w3.org/1999/xlink" width="512" height="512" x="0" y="0" viewBox="0 0 682.667 682.667" style="enable-background:new 0 0 512 512" xml:space="preserve" class=""><g><defs><clipPath id="a" clipPathUnits="userSpaceOnUse"><path d="M0 512h512V0H0Z" fill="#000000" opacity="1" data-original="#000000"></path></clipPath></defs><g clip-path="url(#a)" transform="matrix(1.33333 0 0 -1.33333 0 682.667)"><path d="M0 0v-311.5c0-6.63-5.37-12-12-12h-472.84c-6.63 0-12 5.37-12 12V0l29.347 19.704 423.653 9.477z" style="fill-opacity:1;fill-rule:nonzero;stroke:none" transform="translate(504.42 438.972)" fill="#f2fbff" data-original="#f2fbff" class=""></path><path d="M0 0h-25c-6.63 0-12 5.37-12 12v311.5l13.826 19.705L-12 323.5V12C-12 5.37-6.63 0 0 0" style="fill-opacity:1;fill-rule:nonzero;stroke:none" transform="translate(44.58 115.472)" fill="#d8ecfe" data-original="#d8ecfe"></path><path d="M0 0v-46.36h-496.84V0c0 6.62 5.37 12 12 12H-12C-5.37 12 0 6.62 0 0" style="fill-opacity:1;fill-rule:nonzero;stroke:none" transform="translate(504.42 485.332)" fill="#b3dafe" data-original="#b3dafe"></path><path d="M0 0c-6.63 0-12-5.38-12-12v-46.36h-25V-12c0 6.62 5.37 12 12 12z" style="fill-opacity:1;fill-rule:nonzero;stroke:none" transform="translate(44.58 497.332)" fill="#8ac9fe" data-original="#8ac9fe"></path><path d="M0 0h-310.255c-6.628 0-12-5.373-12-12v-113.739c0-6.627 5.372-12 12-12h23.277a8 8 0 0 0 8-8v-37.406c0-3.404 3.981-5.252 6.582-3.055l55.113 46.571a7.995 7.995 0 0 0 5.163 1.89H0c6.627 0 12 5.373 12 12V-12C12-5.373 6.627 0 0 0" style="fill-opacity:1;fill-rule:nonzero;stroke:none" transform="translate(371.757 400.718)" fill="#fd9aa0" data-original="#fd9aa0" class=""></path><path d="M0 0h310.256c6.627 0 12-5.373 12-12v-113.739c0-6.627-5.373-12-12-12h-23.277a8 8 0 0 1-8-8v-37.407c0-3.404-3.982-5.251-6.583-3.054l-55.112 46.571a7.996 7.996 0 0 1-5.164 1.89H0c-6.627 0-12 5.373-12 12V-12C-12-5.373-6.627 0 0 0" style="fill-opacity:1;fill-rule:nonzero;stroke:none" transform="translate(138.244 201.995)" fill="#c9f6b0" data-original="#c9f6b0"></path><path d="M0 0v-113.739c0-6.63 5.38-12 12-12h-25c-6.62 0-12 5.37-12 12V0c0 6.631 5.38 12 12 12h25C5.38 12 0 6.631 0 0" style="fill-opacity:1;fill-rule:nonzero;stroke:none" transform="translate(151.24 189.995)" fill="#9be69d" data-original="#9be69d"></path><path d="M0 0h-23c-6.63 0-12 5.38-12 12v113.74c0 6.63 5.37 12 12 12H0c-6.63 0-12-5.37-12-12V12C-12 5.38-6.63 0 0 0" style="fill-opacity:1;fill-rule:nonzero;stroke:none" transform="translate(84.5 262.976)" fill="#fd8087" data-original="#fd8087"></path><path d="M0 0h3.391" style="stroke-width:15;stroke-linecap:round;stroke-linejoin:round;stroke-miterlimit:10;stroke-dasharray:none;stroke-opacity:1" transform="translate(458.038 468.155)" fill="none" stroke="#000000" stroke-width="15" stroke-linecap="round" stroke-linejoin="round" stroke-miterlimit="10" stroke-dasharray="none" stroke-opacity="" data-original="#000000" class=""></path><path d="M0 0h-107.66c-6.63 0-12 5.38-12 12v357.86c0 6.63 5.37 12 12 12h472.84c6.63 0 12-5.37 12-12v-74.339" style="stroke-width:15;stroke-linecap:round;stroke-linejoin:round;stroke-miterlimit:10;stroke-dasharray:none;stroke-opacity:1" transform="translate(127.24 115.472)" fill="none" stroke="#000000" stroke-width="15" stroke-linecap="round" stroke-linejoin="round" stroke-miterlimit="10" stroke-dasharray="none" stroke-opacity="" data-original="#000000" class=""></path><path d="M0 0v-248.521c0-6.62-5.37-12-12-12h-30.92" style="stroke-width:15;stroke-linecap:round;stroke-linejoin:round;stroke-miterlimit:10;stroke-dasharray:none;stroke-opacity:1" transform="translate(504.42 375.992)" fill="none" stroke="#000000" stroke-width="15" stroke-linecap="round" stroke-linejoin="round" stroke-miterlimit="10" stroke-dasharray="none" stroke-opacity="" data-original="#000000" class=""></path><path d="M0 0h-496.84" style="stroke-width:15;stroke-linecap:round;stroke-linejoin:round;stroke-miterlimit:10;stroke-dasharray:none;stroke-opacity:1" transform="translate(504.42 438.977)" fill="none" stroke="#000000" stroke-width="15" stroke-linecap="round" stroke-linejoin="round" stroke-miterlimit="10" stroke-dasharray="none" stroke-opacity="" data-original="#000000" class=""></path><path d="M0 0h262.87" style="stroke-width:15;stroke-linecap:round;stroke-linejoin:round;stroke-miterlimit:10;stroke-dasharray:none;stroke-opacity:1" transform="translate(50.57 468.155)" fill="none" stroke="#000000" stroke-width="15" stroke-linecap="round" stroke-linejoin="round" stroke-miterlimit="10" stroke-dasharray="none" stroke-opacity="" data-original="#000000" class=""></path><path d="M0 0h3.391" style="stroke-width:15;stroke-linecap:round;stroke-linejoin:round;stroke-miterlimit:10;stroke-dasharray:none;stroke-opacity:1" transform="translate(429.647 468.155)" fill="none" stroke="#000000" stroke-width="15" stroke-linecap="round" stroke-linejoin="round" stroke-miterlimit="10" stroke-dasharray="none" stroke-opacity="" data-original="#000000" class=""></path><path d="M0 0h3.392" style="stroke-width:15;stroke-linecap:round;stroke-linejoin:round;stroke-miterlimit:10;stroke-dasharray:none;stroke-opacity:1" transform="translate(401.255 468.155)" fill="none" stroke="#000000" stroke-width="15" stroke-linecap="round" stroke-linejoin="round" stroke-miterlimit="10" stroke-dasharray="none" stroke-opacity="" data-original="#000000" class=""></path><path d="m0 0 21.479-21.479" style="stroke-width:15;stroke-linecap:round;stroke-linejoin:round;stroke-miterlimit:10;stroke-dasharray:none;stroke-opacity:1" transform="translate(147.042 319.856)" fill="none" stroke="#000000" stroke-width="15" stroke-linecap="round" stroke-linejoin="round" stroke-miterlimit="10" stroke-dasharray="none" stroke-opacity="" data-original="#000000" class=""></path><path d="M0 0c0-18.541-15.03-33.57-33.57-33.57-18.541 0-33.571 15.029-33.571 33.57 0 18.54 15.03 33.57 33.571 33.57C-15.03 33.57 0 18.54 0 0Z" style="stroke-width:15;stroke-linecap:round;stroke-linejoin:round;stroke-miterlimit:10;stroke-dasharray:none;stroke-opacity:1" transform="translate(168.262 331.676)" fill="none" stroke="#000000" stroke-width="15" stroke-linecap="round" stroke-linejoin="round" stroke-miterlimit="10" stroke-dasharray="none" stroke-opacity="" data-original="#000000" class=""></path><path d="M0 0h119.128" style="stroke-width:15;stroke-linecap:round;stroke-linejoin:round;stroke-miterlimit:10;stroke-dasharray:none;stroke-opacity:1" transform="translate(217.629 365.246)" fill="none" stroke="#000000" stroke-width="15" stroke-linecap="round" stroke-linejoin="round" stroke-miterlimit="10" stroke-dasharray="none" stroke-opacity="" data-original="#000000" class=""></path><path d="M0 0h119.128" style="stroke-width:15;stroke-linecap:round;stroke-linejoin:round;stroke-miterlimit:10;stroke-dasharray:none;stroke-opacity:1" transform="translate(217.629 335.246)" fill="none" stroke="#000000" stroke-width="15" stroke-linecap="round" stroke-linejoin="round" stroke-miterlimit="10" stroke-dasharray="none" stroke-opacity="" data-original="#000000" class=""></path><path d="M0 0h87.893" style="stroke-width:15;stroke-linecap:round;stroke-linejoin:round;stroke-miterlimit:10;stroke-dasharray:none;stroke-opacity:1" transform="translate(217.629 305.246)" fill="none" stroke="#000000" stroke-width="15" stroke-linecap="round" stroke-linejoin="round" stroke-miterlimit="10" stroke-dasharray="none" stroke-opacity="" data-original="#000000" class=""></path><path d="M0 0h-310.255c-6.628 0-12-5.373-12-12v-113.739c0-6.627 5.372-12 12-12h23.277a8 8 0 0 0 8-8v-37.406c0-3.404 3.981-5.252 6.582-3.055l55.112 46.571a7.998 7.998 0 0 0 5.164 1.89H0c6.627 0 12 5.373 12 12V-12C12-5.373 6.627 0 0 0Z" style="stroke-width:15;stroke-linecap:round;stroke-linejoin:round;stroke-miterlimit:10;stroke-dasharray:none;stroke-opacity:1" transform="translate(372.757 400.545)" fill="none" stroke="#000000" stroke-width="15" stroke-linecap="round" stroke-linejoin="round" stroke-miterlimit="10" stroke-dasharray="none" stroke-opacity="" data-original="#000000" class=""></path><path d="m0 0 25.211 66.195c.516 1.26 2.298 1.262 2.816.003L53.009 0" style="stroke-width:15;stroke-linecap:round;stroke-linejoin:round;stroke-miterlimit:10;stroke-dasharray:none;stroke-opacity:1" transform="translate(185.059 99.382)" fill="none" stroke="#000000" stroke-width="15" stroke-linecap="round" stroke-linejoin="round" stroke-miterlimit="10" stroke-dasharray="none" stroke-opacity="" data-original="#000000" class=""></path><path d="M0 0h37.411" style="stroke-width:15;stroke-linecap:round;stroke-linejoin:round;stroke-miterlimit:10;stroke-dasharray:none;stroke-opacity:1" transform="translate(192.921 115.868)" fill="none" stroke="#000000" stroke-width="15" stroke-linecap="round" stroke-linejoin="round" stroke-miterlimit="10" stroke-dasharray="none" stroke-opacity="" data-original="#000000" class=""></path><path d="M0 0h119.128" style="stroke-width:15;stroke-linecap:round;stroke-linejoin:round;stroke-miterlimit:10;stroke-dasharray:none;stroke-opacity:1" transform="translate(294.37 166.523)" fill="none" stroke="#000000" stroke-width="15" stroke-linecap="round" stroke-linejoin="round" stroke-miterlimit="10" stroke-dasharray="none" stroke-opacity="" data-original="#000000" class=""></path><path d="M0 0h119.128" style="stroke-width:15;stroke-linecap:round;stroke-linejoin:round;stroke-miterlimit:10;stroke-dasharray:none;stroke-opacity:1" transform="translate(294.37 136.523)" fill="none" stroke="#000000" stroke-width="15" stroke-linecap="round" stroke-linejoin="round" stroke-miterlimit="10" stroke-dasharray="none" stroke-opacity="" data-original="#000000" class=""></path><path d="M0 0h38.934" style="stroke-width:15;stroke-linecap:round;stroke-linejoin:round;stroke-miterlimit:10;stroke-dasharray:none;stroke-opacity:1" transform="translate(294.37 106.523)" fill="none" stroke="#000000" stroke-width="15" stroke-linecap="round" stroke-linejoin="round" stroke-miterlimit="10" stroke-dasharray="none" stroke-opacity="" data-original="#000000" class=""></path><path d="M0 0h158.44c1.89 0 3.72-.67 5.17-1.891l55.11-46.569c2.6-2.2 6.58-.351 6.58 3.06V-8c0 4.42 3.58 8 8 8h23.28c6.63 0 12 5.37 12 12v113.74c0 6.63-5.37 12-12 12H-53.68c-6.62 0-12-5.37-12-12V12c0-6.63 5.38-12 12-12H-35" style="stroke-width:15;stroke-linecap:round;stroke-linejoin:round;stroke-miterlimit:10;stroke-dasharray:none;stroke-opacity:1" transform="translate(192.92 64.082)" fill="none" stroke="#000000" stroke-width="15" stroke-linecap="round" stroke-linejoin="round" stroke-miterlimit="10" stroke-dasharray="none" stroke-opacity="" data-original="#000000" class=""></path></g></g></svg>