<svg xmlns="http://www.w3.org/2000/svg" version="1.1" xmlns:xlink="http://www.w3.org/1999/xlink" width="512" height="512" x="0" y="0" viewBox="0 0 512 512" style="enable-background:new 0 0 512 512" xml:space="preserve" class=""><g><path d="M454.017 504.5H120.34c-11.888 0-21.525-9.637-21.525-21.525V29.025c0-11.888 9.637-21.525 21.525-21.525h260.91a21.525 21.525 0 0 1 15.22 6.304l72.767 72.767a21.522 21.522 0 0 1 6.304 15.22v381.184c0 11.888-9.636 21.525-21.524 21.525z" style="" fill="#f3f0f3" data-original="#f3f0f3" class=""></path><path d="m469.237 86.571-30-30a21.522 21.522 0 0 1 6.304 15.22v347.335c0 30.582-24.792 55.374-55.374 55.374H98.815v8.475c0 11.888 9.637 21.525 21.525 21.525h333.677c11.888 0 21.525-9.637 21.525-21.525V101.791a21.527 21.527 0 0 0-6.305-15.22z" style="" fill="#e2dee2" data-original="#e2dee2"></path><path d="M400.857 92.875h72.725a21.476 21.476 0 0 0-4.345-6.304L396.47 13.804a21.49 21.49 0 0 0-6.304-4.345v72.725c0 5.905 4.787 10.691 10.691 10.691z" style="" fill="#a8d3d8" data-original="#a8d3d8"></path><circle cx="119.815" cy="421.143" r="83.357" style="" fill="#ffe177" data-original="#ffe177"></circle><path d="M119.816 337.786c-5.124 0-10.131.487-15 1.372 38.873 7.068 68.357 41.072 68.357 81.985s-29.483 74.917-68.357 81.985a83.771 83.771 0 0 0 15 1.372c46.037 0 83.357-37.32 83.357-83.357-.001-46.037-37.321-83.357-83.357-83.357z" style="" fill="#ffd15b" data-original="#ffd15b"></path><path d="M475.541 422.394v60.582c0 11.888-9.637 21.525-21.525 21.525H120.34M98.815 92.204v-63.18c0-11.888 9.637-21.525 21.525-21.525h260.91a21.525 21.525 0 0 1 15.22 6.304l72.767 72.767a21.522 21.522 0 0 1 6.304 15.22v284.603M98.815 340.455V127.204" style="stroke-width:15;stroke-linecap:round;stroke-linejoin:round;stroke-miterlimit:10;" fill="none" stroke="#000000" stroke-width="15" stroke-linecap="round" stroke-linejoin="round" stroke-miterlimit="10" data-original="#000000" class=""></path><path d="M390.166 9.459v72.725c0 5.904 4.787 10.691 10.691 10.691h70.752" style="stroke-width:15;stroke-linecap:round;stroke-linejoin:round;stroke-miterlimit:10;" fill="none" stroke="#000000" stroke-width="15" stroke-linecap="round" stroke-linejoin="round" stroke-miterlimit="10" data-original="#000000" class=""></path><circle cx="119.815" cy="421.143" r="83.357" style="stroke-width:15;stroke-linecap:round;stroke-linejoin:round;stroke-miterlimit:10;" fill="none" stroke="#000000" stroke-width="15" stroke-linecap="round" stroke-linejoin="round" stroke-miterlimit="10" data-original="#000000" class=""></circle><path d="m150.684 394.938-47.578 47.578-18.159-20.564M153.084 164.579h268.189M153.084 204.905h268.189M242.885 66.14h115.234M242.885 106.465h115.234M153.084 245.23h268.189M153.084 290.535h268.189M230.93 361.186h189.343M262.93 403.815h158.343M262.93 442.564h158.343M152.668 67.964V59.4h46.15v8.564M169.081 112.174h13.323M175.743 60.432v51.742" style="stroke-width:15;stroke-linecap:round;stroke-linejoin:round;stroke-miterlimit:10;" fill="none" stroke="#000000" stroke-width="15" stroke-linecap="round" stroke-linejoin="round" stroke-miterlimit="10" data-original="#000000" class=""></path></g></svg>