<svg xmlns="http://www.w3.org/2000/svg" version="1.1" xmlns:xlink="http://www.w3.org/1999/xlink" width="512" height="512" x="0" y="0" viewBox="0 0 512 512" style="enable-background:new 0 0 512 512" xml:space="preserve" class=""><g><g fill-rule="evenodd" clip-rule="evenodd"><path fill="#eceff1" d="M302.277 16.505h145.082c2.754 0 5.125.982 7.073 2.93l38.639 38.639c1.948 1.948 2.93 4.318 2.93 7.073v244.72c0 5.509-4.493 10.003-10.003 10.003H302.277c-5.509 0-10.003-4.493-10.003-10.003V26.507c0-5.509 4.493-10.002 10.003-10.002z" opacity="1" data-original="#eceff1" class=""></path><g fill="#d1d1d6"><path d="M302.277 16.505h10.592v303.364h-10.592c-5.509 0-10.003-4.493-10.003-10.003V26.507c0-5.509 4.493-10.002 10.003-10.002zM451.502 54V17.372a10.027 10.027 0 0 1 2.93 2.063l38.639 38.639c.889.889 1.578 1.867 2.063 2.929h-36.629c-3.857 0-7.003-3.146-7.003-7.003z" fill="#d1d1d6" opacity="1" data-original="#d1d1d6"></path></g><path fill="#eceff1" d="M209.723 16.505H64.641c-2.754 0-5.125.982-7.073 2.93L18.93 58.073C16.982 60.021 16 62.392 16 65.146v244.72c0 5.509 4.493 10.003 10.003 10.003h183.721c5.509 0 10.003-4.493 10.003-10.003V26.507c-.001-5.509-4.494-10.002-10.004-10.002z" opacity="1" data-original="#eceff1" class=""></path><g fill="#d1d1d6"><path d="M209.723 16.505h-10.592v303.364h10.592c5.509 0 10.003-4.493 10.003-10.003V26.507c0-5.509-4.493-10.002-10.003-10.002zM60.498 54V17.372a10.027 10.027 0 0 0-2.93 2.063L18.93 58.073a10.047 10.047 0 0 0-2.063 2.929h36.629c3.856.001 7.002-3.145 7.002-7.002z" fill="#d1d1d6" opacity="1" data-original="#d1d1d6"></path></g><path fill="#a79ba7" d="m249.751 411.276 26.629-1.548-1.136-75.52-26.65.13z" opacity="1" data-original="#a79ba7"></path><path fill="#837683" d="m270.273 410.082 6.106-.355-1.136-75.52-26.65.129.031 2.038 20.539-.1z" opacity="1" data-original="#837683"></path><path fill="#e3a76f" d="m248.212 495.494 30.073-.453c5.281-.079 9.536-4.465 9.457-9.746l-1.215-80.824c-.079-5.281-4.466-9.538-9.746-9.458l-30.073.453c-5.28.079-9.538 4.466-9.458 9.747l1.216 80.824c.079 5.28 4.464 9.536 9.746 9.457z" opacity="1" data-original="#e3a76f"></path><path fill="#c48958" d="m248.212 495.494 30.072-.453c4.753-.071 8.673-3.63 9.353-8.19a9.44 9.44 0 0 1-1.266.103l-30.073.453c-5.282.079-9.667-4.177-9.746-9.458l-1.216-80.823a9.521 9.521 0 0 1 .104-1.556c-4.677.696-8.264 4.792-8.19 9.643l1.216 80.823c.079 5.281 4.464 9.537 9.746 9.458z" opacity="1" data-original="#c48958"></path><circle cx="256" cy="244.872" r="105.636" fill="#ffe177" opacity="1" data-original="#ffe177"></circle><path fill="#ffd064" d="M330.696 170.176c41.253 41.253 41.254 108.138 0 149.392-41.253 41.253-108.139 41.253-149.392 0a107.952 107.952 0 0 1-3.934-4.153c41.473 37.272 105.342 35.963 145.239-3.933 39.897-39.897 41.206-103.765 3.934-145.239a106.394 106.394 0 0 1 4.153 3.933z" opacity="1" data-original="#ffd064"></path><circle cx="256" cy="244.871" r="75.002" fill="#eceff1" opacity="1" data-original="#eceff1" class=""></circle><path fill="#d1d1d6" d="M309.034 191.837a76.012 76.012 0 0 1 3.038 3.228c-29.453-26.209-74.603-25.199-102.841 3.039s-29.248 73.388-3.038 102.841a76.66 76.66 0 0 1-3.228-3.038c-29.29-29.29-29.29-76.779 0-106.069s76.779-29.291 106.069-.001z" opacity="1" data-original="#d1d1d6"></path><path d="M323 244.875c0-36.944-30.056-66.998-67.001-66.998-36.942 0-67 30.053-67 66.998s30.058 66.998 67 66.998c36.945 0 67.001-30.053 67.001-66.998zm-67.001 82.997c-45.766 0-82.999-37.231-82.999-82.996s37.234-82.996 82.999-82.996c45.767 0 83.001 37.231 83.001 82.996s-37.234 82.996-83.001 82.996zm200.525-215.274H331.75a8.002 8.002 0 0 0 0 16.004h124.775a8.002 8.002 0 0 0-.001-16.004zM331.75 77.565h86.178a8 8 0 1 0 0-15.999H331.75a8.002 8.002 0 0 0-8.002 8.002c0 4.415 3.584 7.997 8.002 7.997zm156.247 234.308H347.718a113.332 113.332 0 0 0 15.788-30.18h93.018a8 8 0 1 0 0-15.999h-88.81a113.883 113.883 0 0 0 1.918-20.819c0-4.815-.304-9.555-.886-14.21h87.778c4.418 0 8-3.587 8-8.002a8 8 0 0 0-8-8.002h-90.977a113.268 113.268 0 0 0-16.566-35.033h107.543c4.418 0 8-3.577 8-7.997a8 8 0 0 0-8-8.002H335.359a114 114 0 0 0-35.086-23.407V24.514h143.229V61.01a7.997 7.997 0 0 0 8 7.997h36.496v242.866zm-220.399 46.048c-3.503.363-7.053.551-10.642.579l.434 28.801 10.649-.16zm12.143 127.49-1.215-80.817a1.57 1.57 0 0 0-.495-1.12 1.572 1.572 0 0 0-1.107-.461h-.026l-30.071.447a1.602 1.602 0 0 0-1.118.503 1.56 1.56 0 0 0-.46 1.13l1.214 80.822c.014.866.763 1.558 1.627 1.577l30.073-.452c.87-.01 1.59-.758 1.578-1.629zM256 342.51c-53.835 0-97.635-43.798-97.635-97.635 0-53.833 43.8-97.635 97.635-97.635 26.879 0 51.255 10.92 68.928 28.557a8.025 8.025 0 0 0 2.425 2.513c16.292 17.453 26.28 40.865 26.28 66.565 0 53.838-43.798 97.635-97.633 97.635zM23.999 311.873V69.007h36.499c4.418 0 8-3.577 8-7.997V24.514h143.229v115.709c-13.143 5.582-25.018 13.57-35.085 23.407H55.476c-4.42 0-8.002 3.582-8.002 8.002s3.582 7.997 8.002 7.997h107.541a113.246 113.246 0 0 0-16.566 35.033H55.476a8.001 8.001 0 0 0-8.002 8.002 8.004 8.004 0 0 0 8.002 8.002h87.778a114.084 114.084 0 0 0-.888 14.21c0 7.112.664 14.069 1.92 20.819h-88.81a8 8 0 1 0 0 15.999h93.016a113.346 113.346 0 0 0 15.788 30.18H23.999zM35.314 53.009h17.184V35.824zm424.187 0h17.184l-17.184-17.185zm44.5 8.001v258.86a8.002 8.002 0 0 1-8.002 8.002H333.522c-13.869 12.967-30.977 22.499-49.964 27.248l.503 33.409a17.774 17.774 0 0 1 5.111 3.464c3.381 3.276 5.281 7.668 5.35 12.356l1.216 80.822c.145 9.71-7.632 17.722-17.336 17.872l-30.07.447h-.269c-9.585 0-17.45-7.719-17.597-17.34l-1.215-80.817c-.072-4.693 1.697-9.131 4.977-12.511a17.432 17.432 0 0 1 7.176-4.49l-.463-30.821c-23.976-3.191-45.609-13.88-62.464-29.639H15.999a8 8 0 0 1-8-8.002V61.01c0-2.123.844-4.156 2.344-5.658l44.498-44.499a7.993 7.993 0 0 1 5.656-2.344h159.229a8 8 0 0 1 8 8.002v118.293a113.412 113.412 0 0 1 28.275-3.563 113.4 113.4 0 0 1 28.272 3.563V16.512a8 8 0 0 1 8-8.002h159.229c2.122 0 4.157.843 5.656 2.344l44.5 44.499a8.002 8.002 0 0 1 2.343 5.657zM55.476 128.601h124.775c4.417 0 8-3.587 8-8.002a8.001 8.001 0 0 0-8-8.002H55.476a8.001 8.001 0 0 0-8.002 8.002 8.004 8.004 0 0 0 8.002 8.002zm30.593-59.033a8 8 0 0 0 8.002 7.997h86.18a8 8 0 0 0 0-15.999h-86.18a8.001 8.001 0 0 0-8.002 8.002z" fill="#000000" opacity="1" data-original="#000000"></path></g></g></svg>