<svg xmlns="http://www.w3.org/2000/svg" version="1.1" xmlns:xlink="http://www.w3.org/1999/xlink" width="512" height="512" x="0" y="0" viewBox="0 0 512 512" style="enable-background:new 0 0 512 512" xml:space="preserve" class=""><g><path fill="#9bc4f9" d="M267.319 7.544C132.589 4.939 20.86 114.214 20.598 248.968c-.089 45.58 12.439 88.222 34.267 124.651 1.126 1.88 1.32 4.17.487 6.197L8.025 494.951c-2.335 5.68 3.342 11.357 9.022 9.022l115.134-47.327c2.027-.833 4.317-.639 6.197.487 36.429 21.828 79.069 34.355 124.647 34.267 134.752-.26 244.03-111.984 241.43-246.712C501.949 114.846 397.16 10.054 267.319 7.544z" opacity="1" data-original="#9bc4f9" class=""></path><g fill="#7fb2f9"><path d="M88.928 438.503c-12.455-6.274-27.025-6.809-39.924-1.507l-20.644 8.486L8.025 494.95c-2.335 5.68 3.342 11.357 9.022 9.022l115.134-47.327a6.842 6.842 0 0 1 3.237-.479 240.504 240.504 0 0 1-46.49-17.663zM504.455 244.689c-2.14-110.871-78.863-203.462-182.075-229.72 68.953 41.582 115.486 116.575 117.146 202.568 2.6 134.728-106.677 246.452-241.43 246.712-20.89.04-41.161-2.577-60.502-7.518.267.118.53.25.784.402 36.429 21.828 79.069 34.355 124.647 34.267 134.753-.259 244.03-111.984 241.43-246.711z" fill="#7fb2f9" opacity="1" data-original="#7fb2f9"></path></g><path fill="#eaf2ff" d="M379.609 188.477h-30.653l11.652-56.058c2.278-10.964-4.761-21.698-15.725-23.978-10.956-2.277-21.697 4.763-23.978 15.725l-13.368 64.311h-74.599l11.652-56.058c2.278-10.964-4.761-21.698-15.725-23.978-10.956-2.277-21.698 4.763-23.978 15.725l-13.368 64.311h-38.863c-11.198 0-20.275 9.078-20.275 20.275 0 11.198 9.078 20.275 20.275 20.275h30.434l-12.083 58.13h-38.862c-11.198 0-20.275 9.078-20.275 20.275 0 11.198 9.078 20.275 20.275 20.275h30.433l-9.122 43.882c-2.278 10.964 4.761 21.698 15.725 23.978 1.391.289 2.78.427 4.147.427 9.405 0 17.84-6.581 19.831-16.153l10.837-52.135h74.6l-9.122 43.882c-2.278 10.964 4.761 21.698 15.725 23.978 1.391.289 2.78.427 4.147.427 9.405 0 17.84-6.581 19.831-16.153l10.837-52.135h39.082c11.198 0 20.275-9.078 20.275-20.275 0-11.198-9.078-20.275-20.275-20.275h-30.652l12.083-58.13h39.082c11.198 0 20.275-9.078 20.275-20.275.001-11.195-9.077-20.273-20.275-20.273zm-92.583 98.681h-74.599l12.083-58.13h74.599z" opacity="1" data-original="#eaf2ff" class=""></path><path d="M511.954 244.544c-1.249-64.747-27.179-125.647-73.013-171.481C393.108 27.228 332.21 1.297 267.463.045c-59.856-1.123-118.271 19.45-164.452 58.026a7.5 7.5 0 1 0 9.618 11.512c43.405-36.257 98.257-55.617 154.545-54.54 60.848 1.176 118.083 25.548 161.161 68.627 43.077 43.078 67.447 100.314 68.621 161.163 1.083 56.085-18.183 110.844-54.25 154.19a7.5 7.5 0 0 0 .969 10.563c3.195 2.659 7.923 2.203 10.563-.969 38.37-46.115 58.868-104.385 57.716-164.073zM418.959 423.704c-43.028 38.707-98.411 60.085-155.948 60.196h-.454c-42.468 0-84.069-11.477-120.323-33.201-3.901-2.337-8.725-2.707-12.904-.99L15.497 496.501l46.791-113.833c1.719-4.18 1.348-9.005-.99-12.903-21.803-36.388-33.283-78.153-33.2-120.783.112-57.462 21.441-112.789 60.059-155.79a7.501 7.501 0 0 0-11.16-10.024C35.91 128.92 13.217 187.797 13.098 248.954c-.088 45.266 12.082 89.623 35.199 128.298L1.089 492.099a14.376 14.376 0 0 0 3.139 15.672A14.378 14.378 0 0 0 19.9 510.91l114.848-47.209c38.532 23.033 82.712 35.201 127.809 35.2h.483c61.237-.118 120.173-22.863 165.951-64.044a7.501 7.501 0 0 0-10.032-11.153z" fill="#000000" opacity="1" data-original="#000000" class=""></path><path d="M212.426 294.658h74.6a7.5 7.5 0 0 0 7.343-5.974l12.083-58.13c.967-4.647-2.583-9.027-7.343-9.027h-74.6a7.5 7.5 0 0 0-7.343 5.974l-12.083 58.13c-.967 4.648 2.583 9.027 7.343 9.027zm18.185-58.131h59.278l-8.965 43.13h-59.278z" fill="#000000" opacity="1" data-original="#000000" class=""></path><path d="M132.145 279.658c-15.315 0-27.775 12.46-27.775 27.776 0 15.315 12.46 27.775 27.775 27.775h21.213l-7.244 34.855c-3.59 17.258 9.589 33.433 27.216 33.433 13.078 0 24.507-9.305 27.174-22.127l9.595-46.161h59.278l-7.244 34.855c-3.116 14.996 6.547 29.73 21.543 32.848 15.143 3.152 29.77-6.747 32.847-21.542l9.596-46.161h32.979c15.316 0 27.776-12.46 27.776-27.775 0-15.316-12.46-27.776-27.776-27.776h-21.432l8.965-43.13h32.98c15.315 0 27.775-12.46 27.775-27.775 0-15.316-12.46-27.776-27.775-27.776h-21.433l9.776-47.031c3.116-14.996-6.547-29.73-21.542-32.848-14.993-3.115-29.727 6.547-32.848 21.542l-12.126 58.337H242.16l9.776-47.031c3.116-14.996-6.547-29.73-21.542-32.848-14.994-3.112-29.73 6.546-32.848 21.542l-12.127 58.337h-32.762c-15.315 0-27.775 12.46-27.775 27.776 0 15.315 12.46 27.775 27.775 27.775h21.214l-8.965 43.13zm46.205 9.026 12.083-58.13c.967-4.647-2.583-9.027-7.343-9.027h-30.434c-7.044 0-12.775-5.731-12.775-12.775s5.731-12.776 12.775-12.776h38.863a7.5 7.5 0 0 0 7.343-5.974l13.369-64.31c1.435-6.897 8.218-11.342 15.109-9.908 6.897 1.434 11.341 8.212 9.908 15.109l-11.653 56.057c-.967 4.647 2.583 9.027 7.343 9.027h74.6a7.5 7.5 0 0 0 7.343-5.974l13.368-64.308c1.436-6.899 8.212-11.338 15.109-9.91 6.897 1.434 11.341 8.212 9.908 15.109l-11.653 56.057c-.967 4.647 2.583 9.027 7.343 9.027h30.653c7.044 0 12.775 5.732 12.775 12.776s-5.731 12.775-12.775 12.775h-39.082a7.5 7.5 0 0 0-7.343 5.974l-12.083 58.13c-.967 4.647 2.583 9.027 7.343 9.027h30.652c7.044 0 12.776 5.732 12.776 12.776s-5.732 12.775-12.776 12.775h-39.081a7.5 7.5 0 0 0-7.343 5.974l-10.837 52.134c-1.403 6.745-8.068 11.373-15.109 9.909-6.897-1.434-11.341-8.212-9.908-15.109l9.121-43.882c.967-4.647-2.583-9.027-7.343-9.027h-74.6a7.5 7.5 0 0 0-7.343 5.974l-10.836 52.134c-1.228 5.899-6.479 10.18-12.488 10.18-8.136 0-14.177-7.455-12.53-15.379l9.121-43.882c.967-4.647-2.583-9.027-7.343-9.027h-30.433c-7.044 0-12.775-5.731-12.775-12.775s5.731-12.776 12.775-12.776h38.862a7.5 7.5 0 0 0 7.344-5.975z" fill="#000000" opacity="1" data-original="#000000" class=""></path></g></svg>